# xmcd CD database file
#
# Track frame offsets:
#	150
#	27545
#	51870
#	82564
#	103659
#	124228
#
# Disc length: 1785 seconds
#
# Revision: 2
# Processed by: cddbd v1.5.1PL2 Copyright (c) Steve Scherf et al.
# Submitted via: freeDBTagger 0.9.2.0
#
DISCID=4406f706
DTITLE=Pianos DauGe - DauGe Time Piano
DYEAR=2005
DGENRE=classical
TTITLE0=DAO 〜道〜〜道〜
TTITLE1=百万回生きたねこ
TTITLE2=スーホの白い馬
TTITLE3=母になる日
TTITLE4=Dress
TTITLE5=MISTY DauGe Arrange
EXTD=
EXTT0=
EXTT1=
EXTT2=
EXTT3=
EXTT4=
EXTT5=
PLAYORDER=
